<svg width="24" height="25" viewBox="0 0 24 25" fill="none" xmlns="http://www.w3.org/2000/svg">
<g id="Icons/smile-news">
<path id="Rectangle 608" d="M4 4.5C4 3.94772 4.44772 3.5 5 3.5H19C19.5523 3.5 20 3.94772 20 4.5V16.1842C20 16.7365 19.5523 17.1842 19 17.1842H13.2632L9.61896 21.1321C9.29616 21.4818 8.71351 21.2254 8.75331 20.7511L9.05263 17.1842H5C4.44772 17.1842 4 16.7365 4 16.1842V4.5Z" stroke="currentColor"/>
<path id="Vector 1" d="M9.1626 7.21582V9.06461" stroke="currentColor" stroke-linecap="round"/>
<path id="Vector 3" d="M14.6667 7.26611V9.1149" stroke="currentColor" stroke-linecap="round"/>
<path id="Vector 2" d="M7 11.1853C7 11.9608 7.65406 12.6019 8.15848 13.0324C8.84381 13.6172 9.65057 14.0794 10.507 14.2338C11.4889 14.4109 12.5635 14.3483 13.526 14.0732C14.2446 13.8678 15.0091 13.5386 15.5759 12.9874C16.0366 12.5395 16.3993 11.9238 16.6569 11.309C16.8251 10.9077 17 10.4531 17 10" stroke="currentColor" stroke-linecap="round"/>
</g>
</svg>
